<mxfile host="drawio-plugin" modified="2022-06-13T13:32:57.140Z" agent="5.0 (X11; Linux x86_64) AppleWebKit/537.36 (KHTML, like Gecko) Chrome/97.0.4692.45 Safari/537.36" etag="jfKqUFVQzLzw0AvVO04X" version="15.5.4" type="embed"><diagram id="JTdW8twAlb1bY2S47JTX" name="Page-1"><mxGraphModel dx="898" dy="663" grid="1" gridSize="10" guides="1" tooltips="1" connect="1" arrows="1" fold="1" page="1" pageScale="1" pageWidth="1100" pageHeight="850" math="0" shadow="0"><root><mxCell id="0"/><mxCell id="1" parent="0"/><object placeholders="1" c4Name="Customer" c4Type="SystemScopeBoundary" c4Application="Software System" label="&lt;font style=&quot;font-size: 16px&quot;&gt;&lt;b&gt;&lt;div style=&quot;text-align: left&quot;&gt;%c4Name%&lt;/div&gt;&lt;/b&gt;&lt;/font&gt;&lt;div style=&quot;text-align: left&quot;&gt;[%c4Application%]&lt;/div&gt;" id="sd94QYb_PGDugeuEX2VN-6"><mxCell style="rounded=1;fontSize=11;whiteSpace=wrap;html=1;dashed=1;arcSize=20;fillColor=#fad9d5;strokeColor=#ae4132;labelBackgroundColor=none;align=left;verticalAlign=bottom;labelBorderColor=none;spacingTop=0;spacing=10;dashPattern=8 4;metaEdit=1;rotatable=0;perimeter=rectanglePerimeter;noLabel=0;labelPadding=0;allowArrows=0;connectable=0;expand=0;recursiveResize=0;editable=1;pointerEvents=0;absoluteArcSize=1;points=[[0.25,0,0],[0.5,0,0],[0.75,0,0],[1,0.25,0],[1,0.5,0],[1,0.75,0],[0.75,1,0],[0.5,1,0],[0.25,1,0],[0,0.75,0],[0,0.5,0],[0,0.25,0]];" parent="1" vertex="1"><mxGeometry x="40" y="60" width="670" height="470" as="geometry"/></mxCell></object><object placeholders="1" c4Type="Relationship" c4Technology="GRPC" c4Description="CreateCustomer&#10;..." label="&lt;div style=&quot;text-align: left&quot;&gt;&lt;div style=&quot;text-align: center&quot;&gt;&lt;b&gt;%c4Description%&lt;/b&gt;&lt;/div&gt;&lt;div style=&quot;text-align: center&quot;&gt;[%c4Technology%]&lt;/div&gt;&lt;/div&gt;" id="sd94QYb_PGDugeuEX2VN-7"><mxCell style="endArrow=blockThin;html=1;fontSize=10;fontColor=#404040;strokeWidth=1;endFill=1;strokeColor=#828282;elbow=vertical;metaEdit=1;endSize=14;startSize=14;jumpStyle=arc;jumpSize=16;rounded=0;edgeStyle=orthogonalEdgeStyle;exitX=0.5;exitY=1;exitDx=0;exitDy=0;exitPerimeter=0;entryX=0.47;entryY=0.013;entryDx=0;entryDy=0;entryPerimeter=0;" parent="1" source="OomQ2qUl02oWc7rF4oOb-3" target="OomQ2qUl02oWc7rF4oOb-4" edge="1"><mxGeometry x="-0.1472" width="240" relative="1" as="geometry"><mxPoint x="360" y="200" as="sourcePoint"/><mxPoint x="330" y="330" as="targetPoint"/><mxPoint as="offset"/></mxGeometry></mxCell></object><object placeholders="1" c4Type="Comm.App.Customer" c4Container="Container " c4Technology=".net svc" c4Description="" label="&lt;font style=&quot;font-size: 16px&quot;&gt;&lt;b&gt;%c4Type%&lt;/font&gt;&lt;div&gt;[%c4Container%:&amp;nbsp;%c4Technology%]&lt;/div&gt;&lt;br&gt;&lt;div&gt;&lt;font style=&quot;font-size: 11px&quot;&gt;&lt;font color=&quot;#E6E6E6&quot;&gt;%c4Description%&lt;/font&gt;&lt;/div&gt;" id="OomQ2qUl02oWc7rF4oOb-3"><mxCell style="shape=hexagon;size=50;perimeter=hexagonPerimeter2;whiteSpace=wrap;html=1;fixedSize=1;rounded=1;labelBackgroundColor=none;fillColor=#23A2D9;fontSize=12;fontColor=#ffffff;align=center;strokeColor=#0E7DAD;metaEdit=1;points=[[0.5,0,0],[1,0.25,0],[1,0.5,0],[1,0.75,0],[0.5,1,0],[0,0.75,0],[0,0.5,0],[0,0.25,0]];resizable=1;" parent="1" vertex="1"><mxGeometry x="230" y="85" width="220" height="160" as="geometry"/></mxCell></object><object placeholders="1" c4Type="Comm.Domain.Customer" c4Container="Container " c4Technology=".net svc" c4Description="" label="&lt;font style=&quot;font-size: 16px&quot;&gt;&lt;b&gt;%c4Type%&lt;/font&gt;&lt;div&gt;[%c4Container%:&amp;nbsp;%c4Technology%]&lt;/div&gt;&lt;br&gt;&lt;div&gt;&lt;font style=&quot;font-size: 11px&quot;&gt;&lt;font color=&quot;#E6E6E6&quot;&gt;%c4Description%&lt;/font&gt;&lt;/div&gt;" id="OomQ2qUl02oWc7rF4oOb-4"><mxCell style="shape=hexagon;size=50;perimeter=hexagonPerimeter2;whiteSpace=wrap;html=1;fixedSize=1;rounded=1;labelBackgroundColor=none;fillColor=#23A2D9;fontSize=12;fontColor=#ffffff;align=center;strokeColor=#0E7DAD;metaEdit=1;points=[[0.5,0,0],[1,0.25,0],[1,0.5,0],[1,0.75,0],[0.5,1,0],[0,0.75,0],[0,0.5,0],[0,0.25,0]];resizable=1;" parent="1" vertex="1"><mxGeometry x="220" y="360" width="230" height="160" as="geometry"/></mxCell></object><object placeholders="1" c4Type="Kafka" c4Container="Container " c4Technology="Apache Kafka" c4Description="Kafka" label="&lt;font style=&quot;font-size: 16px&quot;&gt;&lt;b&gt;%c4Type%&lt;/font&gt;&lt;div&gt;[%c4Container%:&amp;nbsp;%c4Technology%]&lt;/div&gt;&lt;br&gt;&lt;div&gt;&lt;font style=&quot;font-size: 11px&quot;&gt;&lt;font color=&quot;#E6E6E6&quot;&gt;%c4Description%&lt;/font&gt;&lt;/div&gt;" id="OomQ2qUl02oWc7rF4oOb-5"><mxCell style="shape=cylinder3;size=15;direction=south;whiteSpace=wrap;html=1;boundedLbl=1;rounded=0;labelBackgroundColor=none;fillColor=#23A2D9;fontSize=12;fontColor=#ffffff;align=center;strokeColor=#0E7DAD;metaEdit=1;points=[[0.5,0,0],[1,0.25,0],[1,0.5,0],[1,0.75,0],[0.5,1,0],[0,0.75,0],[0,0.5,0],[0,0.25,0]];resizable=0;" parent="1" vertex="1"><mxGeometry x="840" y="440" width="240" height="120" as="geometry"/></mxCell></object><object placeholders="1" c4Type="Relationship" c4Description="Writes Messages" label="&lt;div style=&quot;text-align: left&quot;&gt;&lt;div style=&quot;text-align: center&quot;&gt;&lt;b&gt;%c4Description%&lt;/b&gt;&lt;/div&gt;" id="OomQ2qUl02oWc7rF4oOb-8"><mxCell style="endArrow=blockThin;html=1;fontSize=10;fontColor=#404040;strokeWidth=1;endFill=1;strokeColor=#828282;elbow=vertical;metaEdit=1;endSize=14;startSize=14;jumpStyle=arc;jumpSize=16;rounded=0;edgeStyle=orthogonalEdgeStyle;exitX=0.891;exitY=0.744;exitDx=0;exitDy=0;exitPerimeter=0;" parent="1" source="OomQ2qUl02oWc7rF4oOb-4" target="OomQ2qUl02oWc7rF4oOb-5" edge="1"><mxGeometry x="0.6185" width="240" relative="1" as="geometry"><mxPoint x="490" y="480" as="sourcePoint"/><mxPoint x="850" y="490" as="targetPoint"/><Array as="points"><mxPoint x="431" y="479"/><mxPoint x="431" y="480"/></Array><mxPoint as="offset"/></mxGeometry></mxCell></object><object placeholders="1" c4Type="Relationship" c4Description="Read Messages" label="&lt;div style=&quot;text-align: left&quot;&gt;&lt;div style=&quot;text-align: center&quot;&gt;&lt;b&gt;%c4Description%&lt;/b&gt;&lt;/div&gt;" id="sfbJsodh-03BlLZclXUS-3"><mxCell style="endArrow=blockThin;html=1;fontSize=10;fontColor=#404040;strokeWidth=1;endFill=1;strokeColor=#828282;elbow=vertical;metaEdit=1;endSize=14;startSize=14;jumpStyle=arc;jumpSize=16;rounded=0;edgeStyle=orthogonalEdgeStyle;entryX=0.804;entryY=0.956;entryDx=0;entryDy=0;entryPerimeter=0;" parent="1" edge="1"><mxGeometry x="-0.6323" y="-2" width="240" relative="1" as="geometry"><mxPoint x="840" y="512" as="sourcePoint"/><mxPoint x="404.91999999999996" y="511.9599999999999" as="targetPoint"/><Array as="points"><mxPoint x="740" y="512"/><mxPoint x="740" y="512"/></Array><mxPoint as="offset"/></mxGeometry></mxCell></object></root></mxGraphModel></diagram></mxfile>